<svg xmlns="http://www.w3.org/2000/svg" viewBox="0 0 512 512" fill="none">
  <rect width="512" height="512" rx="96" fill="#0f172a"/>
  <rect x="16" y="16" width="480" height="480" rx="84" fill="#1e293b" stroke="#334155" stroke-width="3"/>
  <!-- Calendar body -->
  <rect x="104" y="140" width="304" height="256" rx="24" fill="#1e3a5f" stroke="#3b82f6" stroke-width="5"/>
  <!-- Calendar header -->
  <rect x="104" y="140" width="304" height="72" rx="24" fill="#3b82f6"/>
  <rect x="104" y="188" width="304" height="24" fill="#3b82f6"/>
  <!-- Calendar pins -->
  <rect x="184" y="108" width="16" height="56" rx="8" fill="#60a5fa"/>
  <rect x="312" y="108" width="16" height="56" rx="8" fill="#60a5fa"/>
  <!-- Grid lines -->
  <line x1="204" y1="240" x2="204" y2="380" stroke="#334155" stroke-width="2.5"/>
  <line x1="308" y1="240" x2="308" y2="380" stroke="#334155" stroke-width="2.5"/>
  <line x1="124" y1="290" x2="388" y2="290" stroke="#334155" stroke-width="2.5"/>
  <line x1="124" y1="340" x2="388" y2="340" stroke="#334155" stroke-width="2.5"/>
  <!-- Highlight -->
  <rect x="216" y="250" width="80" height="30" rx="6" fill="#3b82f6" opacity="0.5"/>
  <!-- Check -->
  <path d="M234 308l12 12 24-24" stroke="#22c55e" stroke-width="5" stroke-linecap="round" stroke-linejoin="round"/>
  <!-- Clock icon -->
  <circle cx="345" cy="360" r="20" stroke="#f59e0b" stroke-width="3" fill="none"/>
  <path d="M345 350v12l8 4" stroke="#f59e0b" stroke-width="2.5" stroke-linecap="round"/>
</svg>
